<svg id="Capa_1" enable-background="new 0 0 512 512" height="512" viewBox="0 0 512 512" width="512" xmlns="http://www.w3.org/2000/svg"><g><path d="m337.667 30.125v-30.125h-163.334v30.125h-83.958v481.875h331.25v-481.875zm-133.334-.125h103.333v30.25h-103.333zm187.292 452h-271.25v-421.875h53.958v30.125h163.333v-30.125h53.958v421.875z"/><path d="m241 209.5h30v-27.25h27.25v-30h-27.25v-27.25h-30v27.25h-27.25v30h27.25z"/><path d="m165.625 241h30.125v30h-30.125z"/><path d="m225.875 241h120.5v30h-120.5z"/><path d="m165.625 301.25h30.125v30h-30.125z"/><path d="m225.875 301.25h120.5v30h-120.5z"/><path d="m165.625 361.5h180.75v30h-180.75z"/><path d="m165.625 421.75h180.75v30h-180.75z"/></g></svg>